<svg width="124" height="43" viewBox="0 0 124 43" fill="none" xmlns="http://www.w3.org/2000/svg">
<path d="M63.2202 29.042H57.1655L70.2073 13.3877L66.8406 25.9632H72.1478L59.778 41.885L63.2202 29.042Z" fill="white"/>
<path d="M70.7421 26.6491H65.9423L68.7399 16.2197L58.626 28.3564H64.1115L61.3207 38.7789L70.7421 26.6491Z" fill="url(#paint0_linear_3847_24958)"/>
<path fill-rule="evenodd" clip-rule="evenodd" d="M36.377 26.4492C36.377 25.2501 37.3975 24.2041 38.6731 24.2041C39.9487 24.2041 40.9182 25.2501 40.9182 26.4492C40.9182 27.6482 39.8977 28.7452 38.6731 28.7452C37.4485 28.7452 36.377 27.6993 36.377 26.4492ZM36.4281 29.9953H40.8416V41.8584H36.4281V29.9953ZM4.92042 26.1186H0.506836V41.8595H4.94593V37.6756L6.5787 35.8897L10.6351 41.8595H15.9416L9.66565 32.7007L15.4824 26.1186H10.2269L4.92042 32.3435V26.1186ZM20.1262 30.022H15.8912H15.8401L19.9221 41.8851H23.8509L25.4071 35.7877L27.0144 41.8851H30.9432L34.9741 30.022H30.7392L29.0043 35.9408L27.244 30.022H23.6213L21.8865 35.9408L20.1262 30.022ZM50.8676 41.8588H55.8169V41.8333L51.5819 35.0981L55.7404 29.9957H50.791L47.7296 34.1797V25.8373H43.316V41.8588H47.7296V39.1291L48.699 37.93L50.8676 41.8588Z" fill="white"/>
<path fill-rule="evenodd" clip-rule="evenodd" d="M81.3638 26.0986H73.8027V41.8839H78.2576V37.1307H81.3638C84.9011 37.1307 87.4104 34.8535 87.4104 31.6147C87.4104 28.3758 84.9011 26.0986 81.3638 26.0986ZM82.8008 31.6147C82.8008 32.4658 82.0491 33.0849 80.9879 33.0849H78.2576V30.1444H80.9879C82.0381 30.1444 82.8008 30.7635 82.8008 31.6147ZM100.211 41.8839V34.8976C100.211 31.6588 97.7242 29.7464 94.7174 29.7464C92.7277 29.7464 90.959 30.3212 89.3009 31.1503L90.6606 33.8365C91.6554 33.328 92.4071 33.0295 93.5346 33.0295C94.9053 33.0295 95.9665 33.7149 95.9665 34.8866V34.9529C95.1154 34.6102 94.2421 34.4223 93.4573 34.4223C90.5942 34.4223 88.3392 36.1357 88.3392 38.3687C88.3392 40.6016 90.3621 42.1602 92.9156 42.1602C94.0321 42.1602 95.1596 41.7733 95.9665 41.0327V41.8839H100.211ZM95.9665 37.2411V38.3687H95.9776C95.8781 39.054 95.0601 39.5404 93.9989 39.5404C93.1477 39.5404 92.5508 39.0208 92.5508 38.2581C92.5508 37.4512 93.192 36.8763 94.0873 36.8763C94.7727 36.8763 95.5575 37.0311 95.9665 37.2411ZM101.537 40.359L103.195 37.6729C104.345 38.4798 106.047 39.0767 107.307 39.0767C108.136 39.0767 108.435 38.8667 108.435 38.4798C108.435 38.0708 107.75 37.8387 106.644 37.6065L106.64 37.6056C104.485 37.1416 102.068 36.6209 102.068 33.815C102.068 31.5157 103.925 29.7249 107.031 29.7249C108.866 29.7249 110.635 30.3882 111.994 31.2836L110.502 33.9918C109.518 33.3507 108.159 32.7317 107.031 32.7317C106.412 32.7317 105.992 33.0522 105.992 33.3949C105.992 33.7429 106.421 33.8405 107.376 34.0576C107.483 34.0819 107.596 34.1077 107.716 34.1355C109.872 34.6219 112.359 35.3294 112.359 38.1371C112.359 40.5912 110.403 42.1608 107.186 42.1608C105.119 42.1608 102.985 41.4976 101.537 40.3701V40.359ZM114.815 37.6729L113.157 40.359V40.3701C114.605 41.4976 116.738 42.1608 118.806 42.1608C122.022 42.1608 123.979 40.5912 123.979 38.1371C123.979 35.3294 121.492 34.6219 119.336 34.1355C119.216 34.1077 119.103 34.0819 118.996 34.0576C118.041 33.8405 117.612 33.7429 117.612 33.3949C117.612 33.0522 118.032 32.7317 118.651 32.7317C119.778 32.7317 121.138 33.3507 122.122 33.9918L123.614 31.2836C122.254 30.3882 120.486 29.7249 118.651 29.7249C115.545 29.7249 113.687 31.5157 113.687 33.815C113.687 36.6209 116.105 37.1416 118.26 37.6056L118.264 37.6065C119.369 37.8387 120.055 38.0708 120.055 38.4798C120.055 38.8667 119.756 39.0767 118.927 39.0767C117.667 39.0767 115.965 38.4798 114.815 37.6729Z" fill="white"/>
<path d="M48.0348 17.3009C47.8921 17.3009 47.7622 17.2891 47.645 17.2657C47.5279 17.2444 47.4406 17.221 47.3831 17.1954L47.6131 16.4127C47.7877 16.4596 47.9432 16.4798 48.0795 16.4734C48.2158 16.467 48.3361 16.4159 48.4405 16.3201C48.547 16.2242 48.6407 16.0677 48.7216 15.8505L48.8398 15.5246L47.0444 10.5537H48.0667L49.3095 14.3618H49.3606L50.6033 10.5537H51.6288L49.6066 16.1156C49.5128 16.3712 49.3936 16.5874 49.2488 16.7641C49.1039 16.9431 48.9314 17.0772 48.7312 17.1667C48.531 17.2561 48.2989 17.3009 48.0348 17.3009Z" fill="white"/>
<path d="M41.8989 15.4607V8.91797H42.8541V11.3491H42.9116C42.967 11.2469 43.0469 11.1287 43.1512 10.9945C43.2556 10.8603 43.4004 10.7432 43.5857 10.6431C43.771 10.5409 44.0159 10.4897 44.3205 10.4897C44.7166 10.4897 45.0702 10.5898 45.3811 10.79C45.6921 10.9902 45.9359 11.2788 46.1127 11.6558C46.2916 12.0328 46.381 12.4864 46.381 13.0167C46.381 13.547 46.2927 14.0018 46.1159 14.3809C45.9391 14.7578 45.6963 15.0485 45.3875 15.253C45.0787 15.4553 44.7262 15.5565 44.3301 15.5565C44.0319 15.5565 43.788 15.5064 43.5985 15.4063C43.4111 15.3062 43.2641 15.1891 43.1576 15.0549C43.0511 14.9208 42.9691 14.8015 42.9116 14.6971H42.8318V15.4607H41.8989ZM42.835 13.0071C42.835 13.3522 42.885 13.6546 42.9851 13.9144C43.0852 14.1743 43.23 14.3777 43.4196 14.5246C43.6091 14.6694 43.8413 14.7419 44.116 14.7419C44.4014 14.7419 44.64 14.6662 44.8316 14.515C45.0233 14.3617 45.1681 14.154 45.2661 13.8921C45.3662 13.6301 45.4163 13.3351 45.4163 13.0071C45.4163 12.6834 45.3673 12.3927 45.2693 12.135C45.1735 11.8773 45.0286 11.6739 44.8348 11.5248C44.6431 11.3757 44.4035 11.3012 44.116 11.3012C43.8392 11.3012 43.6049 11.3725 43.4132 11.5152C43.2236 11.6579 43.0799 11.8571 42.9819 12.1126C42.8839 12.3682 42.835 12.6664 42.835 13.0071Z" fill="white"/>
<path d="M35.3591 15.5565C34.9629 15.5565 34.6094 15.4553 34.2985 15.253C33.9896 15.0485 33.7468 14.7578 33.5701 14.3809C33.3954 14.0018 33.3081 13.547 33.3081 13.0167C33.3081 12.4864 33.3965 12.0328 33.5733 11.6558C33.7522 11.2788 33.9971 10.9902 34.308 10.79C34.619 10.5898 34.9715 10.4897 35.3655 10.4897C35.67 10.4897 35.915 10.5409 36.1002 10.6431C36.2877 10.7432 36.4325 10.8603 36.5347 10.9945C36.6391 11.1287 36.72 11.2469 36.7775 11.3491H36.835V8.91797H37.7902V15.4607H36.8574V14.6971H36.7775C36.72 14.8015 36.6369 14.9208 36.5283 15.0549C36.4218 15.1891 36.2749 15.3062 36.0875 15.4063C35.9 15.5064 35.6573 15.5565 35.3591 15.5565ZM35.5699 14.7419C35.8447 14.7419 36.0768 14.6694 36.2664 14.5246C36.4581 14.3777 36.6029 14.1743 36.7008 13.9144C36.8009 13.6546 36.851 13.3522 36.851 13.0071C36.851 12.6664 36.802 12.3682 36.704 12.1126C36.6061 11.8571 36.4623 11.6579 36.2728 11.5152C36.0832 11.3725 35.8489 11.3012 35.5699 11.3012C35.2824 11.3012 35.0428 11.3757 34.8511 11.5248C34.6595 11.6739 34.5146 11.8773 34.4167 12.135C34.3208 12.3927 34.2729 12.6834 34.2729 13.0071C34.2729 13.3351 34.3219 13.6301 34.4198 13.8921C34.5178 14.154 34.6626 14.3617 34.8543 14.515C35.0481 14.6662 35.2867 14.7419 35.5699 14.7419Z" fill="white"/>
<path d="M30.2132 15.5602C29.7298 15.5602 29.3134 15.4569 28.9641 15.2503C28.617 15.0416 28.3486 14.7487 28.1591 14.3718C27.9716 13.9927 27.8779 13.5486 27.8779 13.0396C27.8779 12.537 27.9716 12.094 28.1591 11.7106C28.3486 11.3272 28.6127 11.028 28.9513 10.8129C29.2921 10.5978 29.6904 10.4902 30.1461 10.4902C30.423 10.4902 30.6914 10.536 30.9512 10.6276C31.211 10.7192 31.4442 10.8629 31.6508 11.0589C31.8574 11.2548 32.0203 11.5093 32.1396 11.8224C32.2589 12.1334 32.3185 12.5114 32.3185 12.9565V13.2952H28.4178V12.5795H31.3825C31.3825 12.3282 31.3314 12.1057 31.2291 11.9119C31.1269 11.7159 30.9831 11.5615 30.7979 11.4486C30.6147 11.3358 30.3996 11.2793 30.1525 11.2793C29.8842 11.2793 29.6499 11.3453 29.4497 11.4774C29.2516 11.6073 29.0983 11.7777 28.9897 11.9885C28.8832 12.1973 28.8299 12.4241 28.8299 12.669V13.2281C28.8299 13.5561 28.8874 13.8351 29.0025 14.0651C29.1196 14.2951 29.2825 14.4708 29.4912 14.5922C29.7 14.7115 29.9438 14.7711 30.2228 14.7711C30.4038 14.7711 30.5689 14.7455 30.718 14.6944C30.8671 14.6412 30.9959 14.5624 31.1045 14.458C31.2132 14.3537 31.2962 14.2248 31.3537 14.0715L32.2578 14.2344C32.1854 14.5006 32.0555 14.7338 31.8681 14.934C31.6828 15.1321 31.4496 15.2865 31.1684 15.3972C30.8894 15.5059 30.571 15.5602 30.2132 15.5602Z" fill="white"/>
<path d="M24.6772 15.461V10.5539H25.6005V11.3334H25.6516C25.7411 11.0694 25.8987 10.8617 26.1244 10.7105C26.3523 10.5571 26.61 10.4805 26.8975 10.4805C26.9572 10.4805 27.0275 10.4826 27.1084 10.4869C27.1915 10.4911 27.2564 10.4964 27.3033 10.5028V11.4165C27.2649 11.4059 27.1968 11.3941 27.0988 11.3814C27.0008 11.3665 26.9029 11.359 26.8049 11.359C26.5791 11.359 26.3779 11.4069 26.2011 11.5028C26.0265 11.5965 25.888 11.7275 25.7858 11.8957C25.6836 12.0618 25.6325 12.2514 25.6325 12.4644V15.461H24.6772Z" fill="white"/>
<path d="M21.369 15.5602C20.8855 15.5602 20.4692 15.4569 20.1199 15.2503C19.7727 15.0416 19.5044 14.7487 19.3148 14.3718C19.1274 13.9927 19.0337 13.5486 19.0337 13.0396C19.0337 12.537 19.1274 12.094 19.3148 11.7106C19.5044 11.3272 19.7685 11.028 20.1071 10.8129C20.4479 10.5978 20.8461 10.4902 21.3019 10.4902C21.5788 10.4902 21.8471 10.536 22.107 10.6276C22.3668 10.7192 22.6 10.8629 22.8066 11.0589C23.0132 11.2548 23.1761 11.5093 23.2954 11.8224C23.4146 12.1334 23.4743 12.5114 23.4743 12.9565V13.2952H19.5736V12.5795H22.5382C22.5382 12.3282 22.4871 12.1057 22.3849 11.9119C22.2827 11.7159 22.1389 11.5615 21.9536 11.4486C21.7705 11.3358 21.5554 11.2793 21.3083 11.2793C21.0399 11.2793 20.8057 11.3453 20.6055 11.4774C20.4074 11.6073 20.2541 11.7777 20.1454 11.9885C20.0389 12.1973 19.9857 12.4241 19.9857 12.669V13.2281C19.9857 13.5561 20.0432 13.8351 20.1582 14.0651C20.2754 14.2951 20.4383 14.4708 20.647 14.5922C20.8557 14.7115 21.0996 14.7711 21.3786 14.7711C21.5596 14.7711 21.7247 14.7455 21.8738 14.6944C22.0228 14.6412 22.1517 14.5624 22.2603 14.458C22.3689 14.3537 22.452 14.2248 22.5095 14.0715L23.4136 14.2344C23.3412 14.5006 23.2113 14.7338 23.0238 14.934C22.8385 15.1321 22.6053 15.2865 22.3242 15.3972C22.0452 15.5059 21.7268 15.5602 21.369 15.5602Z" fill="white"/>
<path d="M12.8991 15.4607L11.4551 10.5537H12.4422L13.4038 14.1573H13.4517L14.4165 10.5537H15.4037L16.3621 14.1413H16.41L17.3652 10.5537H18.3524L16.9116 15.4607H15.9372L14.9405 11.9178H14.867L13.8702 15.4607H12.8991Z" fill="white"/>
<path d="M8.48709 15.5602C8.02706 15.5602 7.62559 15.4548 7.2827 15.2439C6.93981 15.0331 6.67358 14.7381 6.48403 14.359C6.29448 13.9799 6.19971 13.5369 6.19971 13.03C6.19971 12.521 6.29448 12.0759 6.48403 11.6946C6.67358 11.3134 6.93981 11.0174 7.2827 10.8065C7.62559 10.5957 8.02706 10.4902 8.48709 10.4902C8.94712 10.4902 9.34859 10.5957 9.69148 10.8065C10.0344 11.0174 10.3006 11.3134 10.4901 11.6946C10.6797 12.0759 10.7745 12.521 10.7745 13.03C10.7745 13.5369 10.6797 13.9799 10.4901 14.359C10.3006 14.7381 10.0344 15.0331 9.69148 15.2439C9.34859 15.4548 8.94712 15.5602 8.48709 15.5602ZM8.49029 14.7583C8.78845 14.7583 9.03551 14.6795 9.23145 14.5219C9.42739 14.3643 9.57221 14.1545 9.66592 13.8926C9.76176 13.6306 9.80968 13.342 9.80968 13.0268C9.80968 12.7137 9.76176 12.4262 9.66592 12.1642C9.57221 11.9001 9.42739 11.6882 9.23145 11.5285C9.03551 11.3688 8.78845 11.2889 8.49029 11.2889C8.18999 11.2889 7.9408 11.3688 7.74273 11.5285C7.54679 11.6882 7.4009 11.9001 7.30506 12.1642C7.21135 12.4262 7.1645 12.7137 7.1645 13.0268C7.1645 13.342 7.21135 13.6306 7.30506 13.8926C7.4009 14.1545 7.54679 14.3643 7.74273 14.5219C7.9408 14.6795 8.18999 14.7583 8.49029 14.7583Z" fill="white"/>
<path d="M0.660156 15.4607V8.91797H2.99226C3.50128 8.91797 3.92298 9.01061 4.25735 9.19591C4.59173 9.3812 4.84198 9.63464 5.0081 9.95624C5.17422 10.2757 5.25729 10.6356 5.25729 11.036C5.25729 11.4386 5.17316 11.8006 5.00491 12.1222C4.83878 12.4417 4.58747 12.6951 4.25096 12.8826C3.91659 13.0678 3.49596 13.1605 2.98907 13.1605H1.38535V12.3235H2.89962C3.22122 12.3235 3.48211 12.2681 3.68231 12.1574C3.88251 12.0445 4.02947 11.8911 4.12318 11.6973C4.21689 11.5035 4.26374 11.2831 4.26374 11.036C4.26374 10.789 4.21689 10.5696 4.12318 10.3779C4.02947 10.1863 3.88145 10.0361 3.67912 9.92748C3.47892 9.81887 3.21483 9.76456 2.88684 9.76456H1.64731V15.4607H0.660156Z" fill="white"/>
<defs>
<linearGradient id="paint0_linear_3847_24958" x1="64.6875" y1="22.9806" x2="64.6875" y2="34.3082" gradientUnits="userSpaceOnUse">
<stop stop-color="#FFD100"/>
<stop offset="1" stop-color="#FEA200"/>
</linearGradient>
</defs>
</svg>